General
Unique ID                                : 224826299846256215759125919557505691619 (0xA923F866A098E36891CF7EC35142AFE3)
Complete name                            : Fringe S05E04 720p WEB-DL DD5.1 H264-EbP.mkv
Format                                   : Matroska
Format version                           : Version 2
File size                                : 1.31 GiB
Duration                                 : 43mn 49s
Overall bit rate                         : 4 293 Kbps
Movie name                               : Fringe (5x04) The Bullet That Saved the World
Encoded date                             : UTC 2012-10-27 13:26:18
Writing application                      : mkvmerge v5.6.0 ('Kenya Kane') built on May 27 2012 16:44:04
Writing library                          : libebml v1.2.3 + libmatroska v1.3.0

Video
ID                                       : 1
Format                                   : AVC
Format/Info                              : Advanced Video Codec
Format profile                           : High@L3.1
Format settings, CABAC                   : No
Format settings, ReFrames                : 2 frames
Codec ID                                 : V_MPEG4/ISO/AVC
Duration                                 : 43mn 49s
Bit rate                                 : 3 823 Kbps
Width                                    : 1 280 pixels
Height                                   : 720 pixels
Display aspect ratio                     : 16:9
Frame rate                               : 23.976 fps
Color space                              : YUV
Chroma subsampling                       : 4:2:0
Bit depth                                : 8 bits
Scan type                                : Progressive
Bits/(Pixel*Frame)                       : 0.173
Stream size                              : 1.17 GiB (89%)
Title                                    : 720p WEB-DL H264
Language                                 : English
Default                                  : Yes
Forced                                   : Yes
Color primaries                          : BT.709-5, BT.1361, IEC 61966-2-4, SMPTE RP177
Transfer characteristics                 : BT.709-5, BT.1361
Matrix coefficients                      : BT.709-5, BT.1361, IEC 61966-2-4 709, SMPTE RP177

Audio
ID                                       : 2
Format                                   : AC-3
Format/Info                              : Audio Coding 3
Mode extension                           : CM (complete main)
Format settings, Endianness              : Big
Codec ID                                 : A_AC3
Duration                                 : 43mn 49s
Bit rate mode                            : Constant
Bit rate                                 : 384 Kbps
Channel(s)                               : 6 channels
Channel positions                        : Front: L C R, Side: L R, LFE
Sampling rate                            : 48.0 KHz
Bit depth                                : 16 bits
Compression mode                         : Lossy
Stream size                              : 120 MiB (9%)
Title                                    : DD5.1 @ 384 Kb/s
Language                                 : English
Default                                  : Yes
Forced                                   : Yes